<svg width="18" height="14" viewBox="0 0 18 14" fill="none" xmlns="http://www.w3.org/2000/svg">
<path d="M2.1819 13.25C1.76523 13.25 1.40854 13.097 1.11182 12.791C0.815107 12.485 0.666748 12.1172 0.666748 11.6875V3.09375H2.1819V11.6875H15.0607V13.25H2.1819ZM5.2122 10.125C4.79554 10.125 4.43884 9.972 4.14213 9.66602C3.84541 9.36003 3.69705 8.99219 3.69705 8.5625V2.3125C3.69705 1.88281 3.84541 1.51497 4.14213 1.20898C4.43884 0.902995 4.79554 0.75 5.2122 0.75H15.8183C16.2349 0.75 16.5916 0.902995 16.8883 1.20898C17.1851 1.51497 17.3334 1.88281 17.3334 2.3125V8.5625C17.3334 8.99219 17.1851 9.36003 16.8883 9.66602C16.5916 9.972 16.2349 10.125 15.8183 10.125H5.2122ZM6.72735 8.5625C6.72735 8.13281 6.579 7.76497 6.28228 7.45898C5.98556 7.15299 5.62887 7 5.2122 7V8.5625H6.72735ZM14.3031 8.5625H15.8183V7C15.4016 7 15.0449 7.15299 14.7482 7.45898C14.4515 7.76497 14.3031 8.13281 14.3031 8.5625ZM10.5152 7.78125C11.1465 7.78125 11.6832 7.55339 12.1251 7.09766C12.567 6.64193 12.788 6.08854 12.788 5.4375C12.788 4.78646 12.567 4.23307 12.1251 3.77734C11.6832 3.32161 11.1465 3.09375 10.5152 3.09375C9.88392 3.09375 9.3473 3.32161 8.90539 3.77734C8.46347 4.23307 8.24251 4.78646 8.24251 5.4375C8.24251 6.08854 8.46347 6.64193 8.90539 7.09766C9.3473 7.55339 9.88392 7.78125 10.5152 7.78125ZM5.2122 3.875C5.62887 3.875 5.98556 3.72201 6.28228 3.41602C6.579 3.11003 6.72735 2.74219 6.72735 2.3125H5.2122V3.875ZM15.8183 3.875V2.3125H14.3031C14.3031 2.74219 14.4515 3.11003 14.7482 3.41602C15.0449 3.72201 15.4016 3.875 15.8183 3.875Z" fill="black"/>
</svg>
