<svg width="155" height="32" viewBox="0 0 155 32" fill="none" xmlns="http://www.w3.org/2000/svg">
<path d="M0.490234 6.78449C0.490234 6.50147 0.719668 6.27203 1.00269 6.27203H37.5975C40.4277 6.27203 42.722 8.56637 42.722 11.3966C42.722 11.6796 42.4926 11.909 42.2096 11.909H5.61478C2.78457 11.909 0.490234 9.6147 0.490234 6.78449Z" fill="white"/>
<path d="M18.1895 13.958C18.1895 13.6907 18.4061 13.474 18.6734 13.474H40.9866C43.6596 13.474 45.8264 15.6409 45.8264 18.3138C45.8264 18.5811 45.6098 18.7978 45.3425 18.7978H23.0293C20.3563 18.7978 18.1895 16.631 18.1895 13.958Z" fill="white"/>
<path d="M35.5801 20.8768C35.5801 20.5938 35.8095 20.3644 36.0925 20.3644H43.8082C46.6384 20.3644 48.9328 22.6587 48.9328 25.4889C48.9328 25.7719 48.7033 26.0014 48.4203 26.0014H40.7046C37.8744 26.0014 35.5801 23.707 35.5801 20.8768Z" fill="white"/>
<path d="M154.51 6.78467C154.51 6.50165 154.28 6.27222 153.997 6.27222H117.403C114.572 6.27222 112.278 8.56655 112.278 11.3968C112.278 11.6798 112.507 11.9092 112.79 11.9092H149.385C152.215 11.9092 154.51 9.61488 154.51 6.78467Z" fill="white"/>
<path d="M136.812 13.9582C136.812 13.6909 136.596 13.4742 136.329 13.4742H114.015C111.342 13.4742 109.176 15.6411 109.176 18.314C109.176 18.5813 109.392 18.798 109.66 18.798H131.973C134.646 18.798 136.812 16.6311 136.812 13.9582Z" fill="white"/>
<path d="M119.422 20.877C119.422 20.594 119.192 20.3646 118.909 20.3646H111.194C108.363 20.3646 106.069 22.6589 106.069 25.4891C106.069 25.7721 106.299 26.0016 106.582 26.0016H114.297C117.128 26.0016 119.422 23.7072 119.422 20.877Z" fill="white"/>
<g clip-path="url(#clip0_723_1417)">
<path d="M60.5165 3.6297V8.40592C60.1188 7.83744 59.5419 7.42115 58.8794 7.2247C57.8634 6.93422 56.779 7.00549 55.8091 7.4265C54.8392 7.8475 54.0431 8.59248 53.5552 9.53578C52.9696 10.6884 52.7718 12.0015 52.9916 13.2771C53.1189 14.2497 53.5287 15.1628 54.1697 15.9015C55.2381 17.1135 56.61 17.5501 58.1808 17.4242C58.6038 17.3985 59.017 17.2846 59.3941 17.0897C59.7711 16.8947 60.1039 16.623 60.3712 16.2918C60.4213 16.2395 60.4741 16.1898 60.5293 16.1429V17.2599H63.3087V3.6297H60.5165ZM58.1884 14.6715C57.8748 14.6815 57.5624 14.6266 57.2706 14.5102C56.9789 14.3939 56.7139 14.2185 56.4921 13.9949C56.2704 13.7713 56.0965 13.5043 55.9812 13.2104C55.866 12.9164 55.8118 12.6018 55.8221 12.2859C55.8221 10.8736 56.7961 9.8619 58.1731 9.85933C58.4913 9.84429 58.809 9.89741 59.1053 10.0152C59.4016 10.133 59.6697 10.3127 59.8919 10.5425C60.1141 10.7724 60.2854 11.0471 60.3944 11.3485C60.5034 11.6499 60.5476 11.9712 60.5242 12.2911C60.616 13.4826 59.7031 14.6484 58.1884 14.6535V14.6715Z" fill="white"/>
<path d="M72.5194 7.26575V8.40331L72.3537 8.19789C71.9701 7.71905 71.4477 7.37257 70.8594 7.20669C69.8424 6.91962 68.7582 6.99455 67.7897 7.41883C66.8212 7.84311 66.0276 8.59078 65.5428 9.53574C64.9613 10.6814 64.7661 11.9867 64.9869 13.254C65.0636 13.898 65.2685 14.5199 65.5892 15.0824C65.9099 15.6449 66.3399 16.1366 66.8535 16.528C67.7637 17.2007 68.8853 17.5182 70.0103 17.4216C70.7534 17.4046 71.4685 17.1328 72.0375 16.6513C72.2032 16.51 72.3741 16.3765 72.5296 16.2507V17.2393H75.3167V7.26575H72.5194ZM72.5194 12.2654C72.6036 13.5853 71.5607 14.6381 70.176 14.6535C69.8622 14.6635 69.5496 14.6085 69.2576 14.492C68.9657 14.3755 68.7006 14.1998 68.4788 13.976C68.257 13.7521 68.0831 13.4848 67.9681 13.1906C67.853 12.8963 67.7991 12.5814 67.8097 12.2654C67.8097 10.8479 68.8144 9.82847 70.1888 9.83874C70.5049 9.82724 70.82 9.88272 71.1135 10.0016C71.407 10.1205 71.6724 10.3001 71.8926 10.5289C72.1128 10.7576 72.2828 11.0304 72.3917 11.3296C72.5006 11.6287 72.5458 11.9475 72.5245 12.2654H72.5194Z" fill="white"/>
<path d="M65.6101 23.9621C64.7072 23.9621 63.8479 23.9338 62.9917 23.9621C62.3971 23.9871 62.0017 23.9056 61.6623 23.2786C61.1299 22.2941 60.1461 21.968 59.0595 22.1217C58.4978 22.1804 57.9684 22.4144 57.5452 22.791C57.1221 23.1677 56.8264 23.6681 56.6996 24.2223C56.5765 24.6094 56.5348 25.0181 56.5769 25.4223C56.6191 25.8266 56.7443 26.2176 56.9445 26.5705C57.1448 26.9234 57.4158 27.2305 57.7402 27.4724C58.0646 27.7142 58.4355 27.8854 58.8292 27.9752C59.4349 28.1283 60.0748 28.0644 60.6388 27.7944C61.2029 27.5243 61.6562 27.0651 61.9207 26.4953C61.9456 26.4162 61.9972 26.3484 62.0666 26.3037C62.136 26.259 62.2188 26.2403 62.3006 26.2508C63.3965 26.2508 64.4799 26.2508 65.6568 26.2508C65.588 26.6128 65.4997 26.9707 65.3921 27.323C64.5609 29.6525 62.8641 30.9411 60.4792 31.3079C59.5962 31.4767 58.6877 31.4559 57.8132 31.2468C56.9387 31.0378 56.1179 30.6451 55.4044 30.0946C54.7246 29.5749 54.1639 28.9139 53.7604 28.1565C53.3569 27.3991 53.1202 26.563 53.0663 25.7052C52.9678 24.8816 53.0321 24.0465 53.2554 23.248C53.4788 22.4494 53.8568 21.7033 54.3677 21.0526C54.8655 20.4121 55.4867 19.8795 56.194 19.4867C56.9013 19.094 57.68 18.8492 58.4836 18.767C60.0935 18.5163 61.7384 18.8785 63.0976 19.7828C63.7417 20.2077 64.2929 20.7605 64.7175 21.4074C65.142 22.0544 65.4309 22.7818 65.5665 23.5451C65.5886 23.6832 65.6032 23.8224 65.6101 23.9621Z" fill="white"/>
<path d="M91.7857 27.4137C91.8318 27.4008 91.8785 27.3903 91.9258 27.3824H95.2041C95.3598 28.4358 96.0914 28.7462 97.0068 28.7556C97.4553 28.7633 97.9031 28.7138 98.3393 28.6083C98.5506 28.5739 98.7422 28.4627 98.8776 28.2957C99.013 28.1288 99.0829 27.9176 99.0741 27.7022C99.0885 27.4985 99.0307 27.2963 98.911 27.1315C98.7913 26.9667 98.6174 26.8501 98.4202 26.8024C97.617 26.5798 96.7982 26.4136 95.9918 26.2067C95.2914 26.0587 94.6025 25.8596 93.9308 25.611C93.3845 25.4017 92.9138 25.0311 92.5804 24.5477C92.2471 24.0643 92.0666 23.4907 92.0627 22.9021C91.9351 20.5225 93.3828 19.3781 95.0236 18.9831C96.5618 18.5795 98.1828 18.6295 99.6936 19.1273C100.38 19.3309 100.99 19.7364 101.445 20.2917C101.901 20.847 102.181 21.5268 102.25 22.2437C102.261 22.4139 102.261 22.5846 102.25 22.7548H99.0367C98.8748 22.7548 98.7876 22.7265 98.7658 22.5322C98.7592 22.2626 98.6543 22.005 98.4712 21.8084C98.288 21.6118 98.0393 21.49 97.7727 21.4662C97.2541 21.4121 96.7307 21.4268 96.216 21.5101C96.0149 21.5342 95.8293 21.6305 95.6932 21.7815C95.557 21.9324 95.4796 22.1277 95.475 22.3315C95.4369 22.5473 95.4749 22.7697 95.5823 22.9603C95.6897 23.151 95.8599 23.2978 96.0634 23.3755C96.8604 23.7831 97.7384 23.8991 98.6008 24.0622C99.4517 24.1795 100.276 24.4458 101.035 24.8491C101.551 25.1284 101.97 25.5574 102.239 26.0803C102.509 26.6032 102.615 27.1957 102.545 27.7806C102.446 29.4266 101.552 30.4894 100.055 30.9785C98.1724 31.6043 96.1381 31.5911 94.2639 30.9409C93.558 30.7257 92.9382 30.2904 92.4939 29.6976C92.0496 29.1048 91.8038 28.3852 91.7919 27.6426C91.7825 27.5674 91.7857 27.4952 91.7857 27.4137Z" fill="white"/>
<path d="M92.7891 14.8228V17.3239C92.552 17.3522 91.8023 17.3881 91.56 17.4035C90.7283 17.5008 89.8858 17.4399 89.0764 17.2238C87.9519 16.8643 87.3093 16.0939 87.2736 14.9127C87.2226 13.2308 87.2328 11.5437 87.2175 9.86173V9.53562H85.1367V7.2605H87.2098V4.43585H90.0301V7.2605H92.7815V9.53819H90.0683C90.0542 9.5808 90.0439 9.62464 90.0377 9.66914C90.0377 11.0429 90.0377 12.4168 90.0607 13.7777C90.076 14.4505 90.4661 14.8049 91.1418 14.8357C91.509 14.8382 92.3888 14.8228 92.7891 14.8228Z" fill="white"/>
<path d="M93.766 14.01C93.8038 13.9994 93.8421 13.9908 93.8808 13.9843H96.5659C96.6934 14.8471 97.2926 15.1013 98.0423 15.109C98.4097 15.1153 98.7764 15.0748 99.1337 14.9883C99.3068 14.9602 99.4636 14.8692 99.5745 14.7324C99.6854 14.5956 99.7427 14.4227 99.7355 14.2462C99.7473 14.0794 99.7 13.9138 99.6019 13.7788C99.5039 13.6439 99.3614 13.5484 99.2 13.5093C98.5421 13.3269 97.8714 13.1908 97.211 13.0214C96.6373 12.9001 96.0731 12.7371 95.5229 12.5335C95.0755 12.3621 94.69 12.0585 94.417 11.6626C94.144 11.2667 93.9962 10.7969 93.993 10.3148C93.8884 8.36583 95.0742 7.42857 96.418 7.10502C97.6778 6.77447 99.0055 6.81547 100.243 7.22314C100.805 7.38989 101.304 7.72202 101.677 8.17684C102.05 8.63167 102.28 9.18842 102.336 9.77559C102.345 9.91496 102.345 10.0548 102.336 10.1941H99.7049C99.5723 10.1941 99.5009 10.171 99.483 10.0118C99.4776 9.79109 99.3917 9.58009 99.2417 9.41906C99.0916 9.25803 98.888 9.15825 98.6696 9.13876C98.2449 9.09444 97.8162 9.10653 97.3946 9.17471C97.23 9.19446 97.0779 9.27338 96.9664 9.39698C96.8549 9.52058 96.7915 9.68056 96.7877 9.84749C96.7565 10.0242 96.7876 10.2064 96.8756 10.3625C96.9636 10.5187 97.103 10.6389 97.2697 10.7026C97.9224 11.0364 98.6415 11.1314 99.3479 11.2649C100.045 11.361 100.72 11.5792 101.342 11.9095C101.764 12.1382 102.107 12.4896 102.328 12.9179C102.549 13.3462 102.636 13.8314 102.579 14.3104C102.497 15.6586 101.765 16.5291 100.539 16.9296C98.997 17.4422 97.3308 17.4313 95.7958 16.8988C95.2176 16.7226 94.71 16.3661 94.3461 15.8805C93.9822 15.395 93.7809 14.8056 93.7711 14.1974C93.7635 14.1358 93.766 14.0768 93.766 14.01Z" fill="white"/>
<path d="M80.2943 17.2596H77.5098V7.2578H80.279V8.94745L80.3351 8.9834C80.7123 8.37826 81.2396 7.88262 81.8651 7.5454C82.4955 7.2178 83.1956 7.04948 83.905 7.05494V9.99257C83.5378 10.0414 83.1604 10.0593 82.7984 10.1441C81.5922 10.4265 80.7125 11.0967 80.3734 12.3499C80.3168 12.5721 80.2893 12.8009 80.2918 13.0303C80.2918 14.4298 80.2943 15.8293 80.2943 17.2596Z" fill="white"/>
<path d="M76.8557 18.9802V20.3691L76.6533 20.1182C76.1849 19.5336 75.5472 19.1106 74.8289 18.908C73.5857 18.5586 72.2609 18.6519 71.0782 19.1723C69.8955 19.6927 68.9274 20.6082 68.3375 21.7642C67.6275 23.1631 67.3892 24.7567 67.6588 26.3041C67.7525 27.0904 68.0026 27.8496 68.3942 28.5364C68.7857 29.2232 69.3107 29.8236 69.9378 30.3015C71.0495 31.1219 72.4189 31.5085 73.7921 31.3894C74.6997 31.3704 75.5734 31.0384 76.2672 30.4489C76.4696 30.2764 76.6782 30.1134 76.8681 29.9598V31.1794H80.271V18.9802H76.8557ZM76.8557 25.0845C76.9584 26.696 75.6851 27.9814 73.9945 28.0002C73.6113 28.0125 73.2296 27.9454 72.8732 27.8031C72.5167 27.6608 72.1931 27.4464 71.9222 27.1731C71.6514 26.8997 71.4392 26.5733 71.2986 26.2141C71.1581 25.8548 71.0923 25.4704 71.1053 25.0845C71.1053 23.3507 72.3319 22.1091 74.0101 22.1217C74.3962 22.1071 74.7811 22.1745 75.1396 22.3195C75.4982 22.4645 75.8225 22.6838 76.0915 22.9632C76.3604 23.2426 76.568 23.5759 76.7007 23.9413C76.8335 24.3068 76.8884 24.6963 76.8619 25.0845H76.8557Z" fill="white"/>
<path d="M86.3432 31.1759H82.9434V18.9485H86.3245V21.0146L86.393 21.0554C86.8539 20.3177 87.4977 19.7136 88.261 19.3028C89.031 18.9032 89.8855 18.6967 90.7517 18.7008V22.3032C90.3034 22.3628 89.8426 22.3847 89.4005 22.4882C87.9279 22.8331 86.8538 23.6514 86.4397 25.1782C86.3708 25.4507 86.3373 25.731 86.34 26.0122C86.34 27.7209 86.3432 29.4202 86.3432 31.1759Z" fill="white"/>
</g>
<defs>
<clipPath id="clip0_723_1417">
<rect width="49.6396" height="30.879" fill="white" transform="translate(52.9121 0.560486)"/>
</clipPath>
</defs>
</svg>
