<svg width="38" height="44" viewBox="0 0 38 44" fill="none" xmlns="http://www.w3.org/2000/svg">
<g id="Group">
<g id="Group_2">
<path id="Vector" d="M26 37.9918C26 38.5478 26.4379 38.9986 27.0029 38.9986H31.9971C32.551 38.9986 33 38.5433 33 38.0068V20.9894C33 19.8899 32.3621 18.3607 31.5806 17.5792L19.7135 5.71212C19.3194 5.31806 18.6813 5.31732 18.2865 5.71212L6.41944 17.5792C5.6355 18.3631 5 19.8968 5 20.9894V38.0068C5 38.5546 5.43788 38.9986 6.00293 38.9986H10.9971C11.551 38.9986 12 38.5487 12 37.9918V28.9917C12 26.7864 13.7873 24.9986 15.9931 24.9986H22.0069C24.2122 24.9986 26 26.7859 26 28.9917V37.9918ZM4.99018 42.9986C2.78646 42.9986 1 41.2148 1 38.9897V21.3506C1 19.1366 2.26573 16.076 3.8323 14.5095L16.1677 2.17405C17.7319 0.609818 20.2657 0.607479 21.8323 2.17405L34.1677 14.5095C35.7319 16.0737 37 19.1255 37 21.3506V38.9897C37 41.2038 35.2148 42.9986 33.0098 42.9986H4.99018Z" fill="black" stroke="black" stroke-width="2"/>
</g>
</g>
</svg>
