<svg width="35" height="35" viewBox="0 0 35 35" fill="none" xmlns="http://www.w3.org/2000/svg">
<path id="Vector" d="M21.8893 18.1345C28.226 20.0583 32.7989 26.0338 33 33H31.1517C30.909 25.5274 25.0021 19.3503 17.5007 19.3503C9.99785 19.3503 4.09098 25.5288 3.84833 33H2C2.19967 26.0338 6.77542 20.0583 13.1121 18.1345C10.5927 16.6221 8.90383 13.8476 8.90383 10.6759C8.90383 5.88392 12.753 2 17.5021 2C22.2456 2 26.0989 5.88812 26.0989 10.6759C26.0989 13.8476 24.4101 16.6221 21.892 18.1345H21.8893ZM17.4993 3.86501C13.7708 3.86501 10.7494 6.91366 10.7494 10.6759C10.7494 14.4409 13.768 17.4853 17.4993 17.4853C21.2265 17.4853 24.2478 14.4367 24.2478 10.6759C24.2478 6.91226 21.2292 3.86501 17.4993 3.86501Z" fill="black" stroke="black" stroke-width="3"/>
</svg>
