<svg width="47" height="39" viewBox="0 0 47 39" fill="none" xmlns="http://www.w3.org/2000/svg">
<g id="Group">
<path id="Compound Path" d="M40.7307 1H15.2799C13.8824 1 12.5421 1.54873 11.5539 2.52549C10.5657 3.50224 10.0105 4.827 10.0105 6.20833V13.7604H6.26932C4.87181 13.7604 3.53154 14.3091 2.54335 15.2859C1.55516 16.2627 1 17.5874 1 18.9688V31.9896C1.0139 33.721 1.71954 35.3769 2.96315 36.5963C4.20677 37.8158 5.88757 38.5001 7.63934 38.5H38.2541C40.3084 38.5 42.2786 37.6934 43.7313 36.2575C45.1839 34.8217 46 32.8743 46 30.8438V6.20833C46 4.827 45.4448 3.50224 44.4566 2.52549C43.4685 1.54873 42.1282 1 40.7307 1ZM10.0105 31.9896C10.0105 32.6112 9.76072 33.2073 9.31603 33.6469C8.87135 34.0864 8.26822 34.3333 7.63934 34.3333C7.00552 34.3335 6.39684 34.0882 5.94376 33.6501C5.49068 33.212 5.22924 32.6159 5.21546 31.9896V18.9688C5.21546 18.6925 5.32649 18.4275 5.52413 18.2322C5.72176 18.0368 5.98982 17.9271 6.26932 17.9271H10.0105V31.9896ZM41.7845 30.8438C41.7845 31.7692 41.4126 32.6568 40.7505 33.3113C40.0884 33.9657 39.1904 34.3333 38.2541 34.3333H13.8045C14.0807 33.582 14.2234 32.789 14.226 31.9896V6.20833C14.226 5.93207 14.337 5.66711 14.5347 5.47176C14.7323 5.27641 15.0004 5.16667 15.2799 5.16667H40.7307C41.0102 5.16667 41.2782 5.27641 41.4759 5.47176C41.6735 5.66711 41.7845 5.93207 41.7845 6.20833V30.8438Z" fill="black" stroke="black"/>
<path id="Path" d="M20.7274 14.125H28.1476C28.6555 14.125 29.1425 13.9275 29.5016 13.5758C29.8608 13.2242 30.0625 12.7473 30.0625 12.25C30.0625 11.7527 29.8608 11.2758 29.5016 10.9242C29.1425 10.5725 28.6555 10.375 28.1476 10.375H20.7274C20.2195 10.375 19.7325 10.5725 19.3734 10.9242C19.0142 11.2758 18.8125 11.7527 18.8125 12.25C18.8125 12.7473 19.0142 13.2242 19.3734 13.5758C19.7325 13.9275 20.2195 14.125 20.7274 14.125Z" fill="black" stroke="black"/>
<path id="Path_2" d="M34.7695 17.875H20.668C20.1759 17.875 19.7039 18.0725 19.356 18.4242C19.008 18.7758 18.8125 19.2527 18.8125 19.75C18.8125 20.2473 19.008 20.7242 19.356 21.0758C19.7039 21.4275 20.1759 21.625 20.668 21.625H34.7695C35.2616 21.625 35.7336 21.4275 36.0815 21.0758C36.4295 20.7242 36.625 20.2473 36.625 19.75C36.625 19.2527 36.4295 18.7758 36.0815 18.4242C35.7336 18.0725 35.2616 17.875 34.7695 17.875Z" fill="black" stroke="black"/>
<path id="Path_3" d="M34.7695 25.375H20.668C20.1759 25.375 19.7039 25.5725 19.356 25.9242C19.008 26.2758 18.8125 26.7527 18.8125 27.25C18.8125 27.7473 19.008 28.2242 19.356 28.5758C19.7039 28.9275 20.1759 29.125 20.668 29.125H34.7695C35.2616 29.125 35.7336 28.9275 36.0815 28.5758C36.4295 28.2242 36.625 27.7473 36.625 27.25C36.625 26.7527 36.4295 26.2758 36.0815 25.9242C35.7336 25.5725 35.2616 25.375 34.7695 25.375Z" fill="black" stroke="black"/>
</g>
</svg>
