<svg width="32" height="32" viewBox="0 0 32 32" fill="none" xmlns="http://www.w3.org/2000/svg">
    <circle cx="16" cy="16" r="16" fill="white"/>
    <path d="M16.0001 16.0002C16.3667 16.0002 16.6806 15.8696 16.9417 15.6085C17.2029 15.3474 17.3334 15.0335 17.3334 14.6668C17.3334 14.3002 17.2029 13.9863 16.9417 13.7252C16.6806 13.4641 16.3667 13.3335 16.0001 13.3335C15.6334 13.3335 15.3195 13.4641 15.0584 13.7252C14.7973 13.9863 14.6667 14.3002 14.6667 14.6668C14.6667 15.0335 14.7973 15.3474 15.0584 15.6085C15.3195 15.8696 15.6334 16.0002 16.0001 16.0002ZM16.0001 22.6668C14.2112 21.1446 12.8751 19.7307 11.9917 18.4252C11.1084 17.1196 10.6667 15.9113 10.6667 14.8002C10.6667 13.1335 11.2029 11.8057 12.2751 10.8168C13.3473 9.82794 14.589 9.3335 16.0001 9.3335C17.4112 9.3335 18.6529 9.82794 19.7251 10.8168C20.7973 11.8057 21.3334 13.1335 21.3334 14.8002C21.3334 15.9113 20.8917 17.1196 20.0084 18.4252C19.1251 19.7307 17.789 21.1446 16.0001 22.6668Z" fill="black"/>
</svg>
