<svg width="51" height="51" viewBox="0 0 51 51" fill="none" xmlns="http://www.w3.org/2000/svg">
<rect width="51" height="51" rx="16" fill="white"/>
<path d="M24.5125 38.75V35.9904C22.3344 35.7604 20.4219 34.8184 18.775 33.1644C17.1281 31.5104 16.2028 29.622 15.9989 27.4992H13.25V24.5273H15.9859C16.2339 22.3515 17.1857 20.4321 18.8414 18.7693C20.4971 17.1064 22.3875 16.182 24.5125 15.9961V13.25H27.4875V15.9831C29.6125 16.1777 31.5029 17.1064 33.1586 18.7693C34.8143 20.4321 35.7661 22.3515 36.0141 24.5273H38.75V27.4992H36.0011C35.7972 29.622 34.8719 31.5104 33.225 33.1644C31.5781 34.8184 29.6656 35.7574 27.4875 35.9814V38.75H24.5125ZM26.0133 32.7001C27.8992 32.7001 29.493 32.0544 30.7945 30.763C32.0961 29.4716 32.7469 27.8796 32.7469 25.9867C32.7469 24.0939 32.0961 22.5018 30.7945 21.2105C29.493 19.9191 27.8992 19.2734 26.0133 19.2734C24.1273 19.2734 22.5336 19.9191 21.232 21.2105C19.9305 22.5018 19.2797 24.0939 19.2797 25.9867C19.2797 27.8796 19.9305 29.4716 21.232 30.763C22.5336 32.0544 24.1273 32.7001 26.0133 32.7001Z" fill="black"/>
</svg>
